HIERARCHY
ROOT Hips
{
	OFFSET 4.076200 -17.275196 43.303001
	CHANNELS 6 Xposition Yposition Zposition Zrotation Xrotation Yrotation
	JOINT Chest
	{
		OFFSET -0.689800 0.941999 5.341000
		CHANNELS 6 Xposition Yposition Zposition Zrotation Xrotation Yrotation
		JOINT Chest2
		{
			OFFSET 0.000000 0.000000 4.278900
			CHANNELS 6 Xposition Yposition Zposition Zrotation Xrotation Yrotation
			JOINT Neck
			{
				OFFSET 0.000000 0.000000 9.970299
				CHANNELS 6 Xposition Yposition Zposition Zrotation Xrotation Yrotation
				JOINT Head
				{
					OFFSET 0.000000 0.000002 2.173901
					CHANNELS 6 Xposition Yposition Zposition Zrotation Xrotation Yrotation
					End Site
					{
						OFFSET 0.000000 0.000000 6.488197
					}
				}
			}
			JOINT LeftCollar
			{
				OFFSET 2.472300 -0.285801 5.433899
				CHANNELS 6 Xposition Yposition Zposition Zrotation Xrotation Yrotation
				JOINT LeftShoulder
				{
					OFFSET 5.327700 0.000000 0.000000
					CHANNELS 6 Xposition Yposition Zposition Zrotation Xrotation Yrotation
					JOINT LeftElbow
					{
						OFFSET 0.000000 0.000000 -10.713001
						CHANNELS 6 Xposition Yposition Zposition Zrotation Xrotation Yrotation
						JOINT LeftWrist
						{
							OFFSET 0.000000 -0.000002 -13.396900
							CHANNELS 6 Xposition Yposition Zposition Zrotation Xrotation Yrotation
							End Site
							{
								OFFSET 0.000000 0.000000 -2.173901
							}
						}
					}
				}
			}
			JOINT RightCollar
			{
				OFFSET -2.589400 -1.358400 6.105000
				CHANNELS 6 Xposition Yposition Zposition Zrotation Xrotation Yrotation
				JOINT RightShoulder
				{
					OFFSET -4.580200 0.000000 0.000000
					CHANNELS 6 Xposition Yposition Zposition Zrotation Xrotation Yrotation
					JOINT RightElbow
					{
						OFFSET 0.000000 0.000000 -10.761101
						CHANNELS 6 Xposition Yposition Zposition Zrotation Xrotation Yrotation
						JOINT RightWrist
						{
							OFFSET 0.000000 -0.000002 -13.028500
							CHANNELS 6 Xposition Yposition Zposition Zrotation Xrotation Yrotation
							End Site
							{
								OFFSET 0.000000 0.000000 -2.173901
							}
						}
					}
				}
			}
		}
	}
	JOINT LeftHip
	{
		OFFSET 2.532500 0.486900 -2.489700
		CHANNELS 6 Xposition Yposition Zposition Zrotation Xrotation Yrotation
		JOINT LeftKnee
		{
			OFFSET 0.000000 -0.000002 -18.199398
			CHANNELS 6 Xposition Yposition Zposition Zrotation Xrotation Yrotation
			JOINT LeftAnkle
			{
				OFFSET 0.000000 -0.000002 -16.083900
				CHANNELS 6 Xposition Yposition Zposition Zrotation Xrotation Yrotation
				End Site
				{
					OFFSET 0.000000 -8.641399 0.000000
				}
			}
		}
	}
	JOINT RightHip
	{
		OFFSET -2.112700 -0.049900 -2.711102
		CHANNELS 6 Xposition Yposition Zposition Zrotation Xrotation Yrotation
		JOINT RightKnee
		{
			OFFSET 0.000000 -0.000002 -19.127298
			CHANNELS 6 Xposition Yposition Zposition Zrotation Xrotation Yrotation
			JOINT RightAnkle
			{
				OFFSET 0.000000 -0.000002 -14.874901
				CHANNELS 6 Xposition Yposition Zposition Zrotation Xrotation Yrotation
				End Site
				{
					OFFSET 0.000000 -8.198299 0.000000
				}
			}
		}
	}
}
MOTION
Frames: 4
Frame Time: 0.041667
37.377098 -64.945900 45.379200 -104.202117 -0.842192 -0.059328 -0.689797 0.942002 5.340999 11.545841 -0.331697 0.142470 0.000001 -0.000001 4.278902 -3.489476 0.124158 -0.102333 -0.000006 0.000006 9.970302 2.342459 10.323512 0.264338 -0.000001 0.000006 2.173891 0.668485 -1.310808 -0.181069 2.472301 -0.285798 5.433895 -8.172617 1.191594 -6.805710 5.327704 -0.000007 0.000000 -27.020983 -40.867744 -44.470341 0.000018 -0.000003 -10.713003 29.879550 -41.231789 73.132263 0.000003 -0.000009 -13.396896 -70.860569 1.312273 -94.802698 -2.589406 -1.358397 6.105001 19.178150 4.391327 5.145610 -4.580202 0.000004 0.000005 37.514595 -31.418945 51.849701 0.000002 0.000002 -10.761109 -56.460335 -52.093204 -83.429764 0.000005 -0.000011 -13.028505 -107.864813 2.546021 -146.720742 2.532506 0.486896 -2.489706 20.699443 -22.802926 4.049394 0.000000 -0.000003 -18.199396 30.361243 21.261440 -2.441002 0.000000 -0.000002 -16.083899 -30.665114 68.416625 0.677040 -2.112697 -0.049899 -2.711104 2.698003 -0.033290 3.543879 0.000001 -0.000000 -19.127300 334.686209 35.141293 -362.725857 -0.000002 0.000003 -14.874902 25.861364 64.612988 -3.349596
36.993401 -64.956802 45.249599 -104.291197 -0.738494 -0.267256 -0.689803 0.941995 5.340999 11.496420 -0.638934 0.346170 0.000007 -0.000003 4.278902 -3.506030 0.171602 -0.086367 0.000011 0.000003 9.970300 2.405135 10.315587 0.356379 0.000002 -0.000002 2.173895 0.685473 -1.317024 -0.202302 2.472305 -0.285799 5.433901 -7.836387 1.383777 -6.827598 5.327699 -0.000002 0.000001 -27.021514 -41.202939 -44.432170 0.000002 0.000003 -10.712996 29.874766 -41.225823 73.304595 0.000002 -0.000005 -13.396911 -70.963118 1.251735 -94.740338 -2.589395 -1.358394 6.105004 19.261704 4.356678 5.395216 -4.580200 0.000001 0.000002 37.370366 -31.695151 51.545037 -0.000005 0.000000 -10.761101 -56.460427 -51.797300 -83.573177 -0.000001 -0.000009 -13.028493 -107.543138 2.593628 -147.078944 2.532502 0.486894 -2.489702 20.629442 -22.544870 4.440552 0.000003 0.000002 -18.199402 29.436114 22.134167 -2.527671 0.000002 -0.000007 -16.083899 -28.583650 67.259345 -0.274981 -2.112705 -0.049904 -2.711102 2.080989 -0.856547 3.987335 0.000001 0.000001 -19.127295 335.884033 37.463028 -362.168622 -0.000002 0.000001 -14.874900 25.019555 63.960576 -3.291665
36.601299 -64.970001 45.097698 -104.358358 -0.763608 -0.335739 -0.689802 0.942006 5.340997 11.480926 -0.818590 0.333582 0.000005 0.000001 4.278899 -3.458522 0.163118 -0.058366 0.000006 -0.000003 9.970299 1.905328 10.221235 0.901312 -0.000000 -0.000006 2.173891 1.156934 -1.267611 -0.539582 2.472296 -0.285801 5.433903 -7.713732 1.596335 -6.689368 5.327696 -0.000010 -0.000001 -27.303246 -41.299978 -44.736964 0.000003 0.000004 -10.712999 30.086345 -41.343115 73.379666 0.000002 -0.000004 -13.396899 -71.039186 1.164742 -94.772625 -2.589397 -1.358401 6.105007 19.312973 4.458318 5.511587 -4.580205 0.000002 0.000004 37.414745 -31.701514 51.549319 -0.000004 0.000001 -10.761103 -56.888396 -51.587261 -83.840456 0.000004 -0.000006 -13.028495 -107.369228 2.550951 -147.101975 2.532500 0.486903 -2.489702 20.534892 -22.299215 4.687827 0.000000 -0.000002 -18.199406 28.295001 23.267699 -2.617179 0.000008 0.000000 -16.083897 -26.239447 65.774920 -1.305405 -2.112706 -0.049894 -2.711101 1.319273 -1.637878 4.353582 0.000000 -0.000006 -19.127298 336.752887 39.978333 -361.557922 -0.000005 -0.000002 -14.874902 24.189398 63.380214 -2.745083
36.206902 -64.983192 44.927502 -104.380133 -0.696459 -0.442421 -0.689803 0.942002 5.341001 11.517438 -1.114392 0.415517 -0.000006 -0.000005 4.278895 -3.401643 0.243804 -0.174841 0.000001 -0.000003 9.970299 1.726335 10.151134 1.162376 -0.000005 -0.000002 2.173908 1.169995 -1.274771 -0.565247 2.472296 -0.285803 5.433905 -7.712474 1.740013 -6.539589 5.327708 -0.000005 0.000001 -27.332324 -41.599554 -44.832699 0.000000 0.000006 -10.713002 30.214766 -41.285509 73.570577 0.000000 -0.000003 -13.396884 -71.128736 1.120475 -94.695559 -2.589405 -1.358402 6.105003 19.256549 4.509363 5.824343 -4.580202 -0.000005 0.000001 37.268999 -32.070638 51.404530 -0.000003 -0.000000 -10.761100 -56.794703 -51.279465 -83.946836 0.000005 0.000005 -13.028502 -107.157171 2.565307 -147.354187 2.532502 0.486900 -2.489703 20.424105 -22.210853 4.997976 0.000001 0.000000 -18.199396 27.051085 24.668347 -2.694232 0.000009 -0.000004 -16.083899 -23.351396 63.991209 -3.361924 -2.112705 -0.049898 -2.711104 0.535947 -2.530859 4.719348 -0.000003 -0.000003 -19.127298 338.018057 42.559629 -361.051641 -0.000001 -0.000008 -14.874898 23.371685 62.716129 -2.516369
